<svg width="691" height="957" viewBox="0 0 691 957" preserveAspectRatio="none" xmlns="http://www.w3.org/2000/svg" xmlns:xlink="http://www.w3.org/1999/xlink" overflow="hidden"><defs></defs><g><g id="ent0002"><rect x="147.85" y="151.15" rx="12.5" ry="12.5" width="161.838" height="64.2344" stroke="#334155" stroke-width="0.5" fill="#F8FAFC"/><line x1="147.85" y1="177.447" x2="309.688" y2="177.447" stroke="#334155" stroke-width="0.5"/><text fill="#0F172A" font-family="Arial" font-size="14" x="160.977" y="169.145">У черзі дуги (FIFO)</text><text fill="#0F172A" font-family="Arial" font-size="12" x="152.85" y="193.585">токен очікує доставки</text><text fill="#0F172A" font-family="Arial" font-size="12" x="152.85" y="207.554">на дузі e ∈ E</text></g><g id="ent0003"><rect x="7" y="310.53" rx="12.5" ry="12.5" width="221.539" height="64.2344" stroke="#334155" stroke-width="0.5" fill="#F8FAFC"/><line x1="7" y1="336.827" x2="228.539" y2="336.827" stroke="#334155" stroke-width="0.5"/><text fill="#0F172A" font-family="Arial" font-size="14" x="19.3047" y="328.525">Доставлений (inbox вузла)</text><text fill="#0F172A" font-family="Arial" font-size="12" x="12" y="352.966">токен у inbox приймача,</text><text fill="#0F172A" font-family="Arial" font-size="12" x="12" y="366.934">очікує заповнення інших портів</text></g><g id="ent0004"><rect x="11.85" y="466.77" rx="12.5" ry="12.5" width="175.846" height="50" stroke="#334155" stroke-width="0.5" fill="#F8FAFC"/><line x1="11.85" y1="493.067" x2="187.696" y2="493.067" stroke="#334155" stroke-width="0.5"/><text fill="#0F172A" font-family="Arial" font-size="14" x="21.85" y="484.765">Готовий до активації</text></g><g id="ent0005"><rect x="120.78" y="638.77" rx="12.5" ry="12.5" width="193.977" height="64.2344" stroke="#334155" stroke-width="0.5" fill="#F8FAFC"/><line x1="120.78" y1="665.067" x2="314.757" y2="665.067" stroke="#334155" stroke-width="0.5"/><text fill="#0F172A" font-family="Arial" font-size="14" x="150.345" y="656.765">Активований (fire)</text><text fill="#0F172A" font-family="Arial" font-size="12" x="125.78" y="681.206">обчислення за типом вузла</text><text fill="#0F172A" font-family="Arial" font-size="12" x="125.78" y="695.174">(dft4 / twiddle / sink)</text></g><g id="ent0006"><rect x="100.25" y="810" rx="12.5" ry="12.5" width="235.031" height="50" stroke="#334155" stroke-width="0.5" fill="#F8FAFC"/><line x1="100.25" y1="836.297" x2="335.281" y2="836.297" stroke="#334155" stroke-width="0.5"/><text fill="#0F172A" font-family="Arial" font-size="14" x="110.25" y="827.995">Поглинутий (sink зібрав X(k))</text></g><g id="ent0002"><ellipse cx="228.77" cy="16" rx="10" ry="10" stroke="#222222" fill="#222222"/></g><g id="ent0009"><ellipse cx="217.77" cy="932" rx="11" ry="11" stroke="#222222" fill="none"/><ellipse cx="217.77" cy="932" rx="6" ry="6" stroke="#222222" fill="#222222"/></g><g id="ent0003"><path d="M344.76 148 344.76 179.27 310.01 183.27 344.76 187.27 344.76 218.531 344.76 218.531 676.782 218.531 676.782 218.531 676.782 158 666.782 148 344.76 148 344.76 148" stroke="#181818" stroke-width="0.5" fill="#FEFFDD"/><path d="M666.782 148 666.782 158 676.782 158 666.782 148" stroke="#181818" stroke-width="0.5" fill="#FEFFDD"/><text font-family="Arial" font-size="13" x="350.76" y="165.067">Реалізація: DataflowRuntime.tick(dt, maxFires)</text><text font-family="Arial" font-size="13" x="350.76" y="180.2">крок 1 — доставка з FIFO у inbox (edge.delay)</text><text font-family="Arial" font-size="13" x="350.76" y="195.333">крок 2 — fire готових вузлів (node.latency)</text><text font-family="Arial" font-size="13" x="350.76" y="210.465">Логічний час t_now = store.simTime</text></g><g id="lnk3"><path d="M228.77 26.36C228.77 49.92 228.77 106.52 228.77 144.84" id="*start*-to-ВЧерзіДуги" stroke="#181818" fill="none"/><path d="M228.77 150.84 232.77 141.84 228.77 145.84 224.77 141.84 228.77 150.84Z" stroke="#181818" fill="#181818"/><text font-family="Arial" font-size="13" x="295.329" y="69.0669">emitFrom() (source)</text><text font-family="Arial" font-size="13" x="233.261" y="84.1997">або активація вузла породжує токен</text><text font-family="Arial" font-size="13" x="229.77" y="99.3325">t = t_now + node.latency → push у FIFO</text><text font-family="Arial" font-size="13" x="328.489" y="114.465">/ onToken</text></g><g id="lnk4"><path d="M149.9 215.73C137.04 224.42 125.44 235.22 117.77 248.53 107.11 267.02 106.56 285.265 109.39 304.345" id="ВЧерзіДуги-to-ДоставленийUInbox" stroke="#181818" fill="none"/><path d="M110.27 310.28 112.906 300.79 109.536 305.334 104.993 301.964 110.27 310.28Z" stroke="#181818" fill="#181818"/><text font-family="Arial" font-size="13" x="118.77" y="261.597">t_now − token.t ≥ edge.delay</text><text font-family="Arial" font-size="13" x="131.795" y="276.73">pop() → inbox[node][port]</text></g><g id="lnk5"><path d="M113.91 375.21C110.56 402.56 106.52 435.615 103.46 460.575" id="ДоставленийUInbox-to-Готовий" stroke="#181818" fill="none"/><path d="M102.73 466.53 107.795 458.084 103.338 461.567 99.8549 457.11 102.73 466.53Z" stroke="#181818" fill="#181818"/><text font-family="Arial" font-size="13" x="121.758" y="417.837">усі inPorts заповнені</text><text font-family="Arial" font-size="13" x="111.77" y="432.97">і readyAt[node] ≤ t_now</text></g><g id="lnk6"><path d="M90.96 516.98C83.5 541.94 76.52 581.03 93.77 608.77 101.25 620.79 106.86 627.218 118.77 635.068" id="Готовий-to-Активований" stroke="#181818" fill="none"/><path d="M123.78 638.37 118.467 630.077 119.605 635.618 114.064 636.757 123.78 638.37Z" stroke="#181818" fill="#181818"/><text font-family="Arial" font-size="13" x="140.67" y="559.837">execute(node.kind)</text><text font-family="Arial" font-size="13" x="137.975" y="574.97">споживання входів</text><text font-family="Arial" font-size="13" x="133.522" y="590.102">/ onBeforeFire, onFire</text><text font-family="Arial" font-size="13" x="94.77" y="605.235">readyAt[node] = t_now + latency</text></g><g id="lnk7"><path d="M289.9 638.58C301.07 630.51 311.1 620.66 317.77 608.77 396.08 469.12 390.66 391.08 317.77 248.53 311.17 235.64 305.391 228.407 293.851 219.457" id="Активований-to-ВЧерзіДуги" stroke="#181818" fill="none"/><path d="M289.11 215.78 293.77 224.456 293.061 218.844 298.673 218.135 289.11 215.78Z" stroke="#181818" fill="#181818"/><text font-family="Arial" font-size="13" x="375.77" y="417.837">вихідні токени → дуги-нащадки</text><text font-family="Arial" font-size="13" x="394.248" y="432.97">(для source / dft4 / twiddle)</text></g><g id="lnk8"><path d="M217.77 703.14C217.77 734.24 217.77 775.31 217.77 803.71" id="Активований-to-Поглинутий" stroke="#181818" fill="none"/><path d="M217.77 809.71 221.77 800.71 217.77 804.71 213.77 800.71 217.77 809.71Z" stroke="#181818" fill="#181818"/><text font-family="Arial" font-size="13" x="245.69" y="746.067">вузол kind = sink</text><text font-family="Arial" font-size="13" x="268.561" y="761.2">/ onOutput</text><text font-family="Arial" font-size="13" x="218.77" y="776.332">latency = t_now − originT</text></g><g id="lnk10"><path d="M217.77 860.46C217.77 880.04 217.77 900.49 217.77 914.8" id="Поглинутий-to-*end*" stroke="#181818" fill="none"/><path d="M217.77 920.8 221.77 911.8 217.77 915.8 213.77 911.8 217.77 920.8Z" stroke="#181818" fill="#181818"/></g></g></svg>